#define icon_save_width 20
#define icon_save_height 20
static char icon_save_bits[] = {
 0x00,0x00,0x00,0x00,0x00,0x00,0xf8,0xff,0x01,0x28,0x40,0x01,0x38,0xc0,0x01,
 0x28,0x40,0x01,0x38,0xc0,0x01,0x28,0x40,0x01,0x38,0xc0,0x01,0xd8,0x7f,0x01,
 0xa8,0xaa,0x01,0xd8,0x7f,0x01,0xe8,0xcf,0x01,0xd8,0x4f,0x01,0xe8,0xcf,0x01,
 0xf0,0xff,0x01,0x00,0x00,0x00,0x00,0x00,0x00,0x00,0x00,0x00,0x00,0x00,0x00};
