#define icon_open_width 20
#define icon_open_height 20
static char icon_open_bits[] = {
 0x00,0x00,0x00,0x00,0x00,0x00,0x00,0x00,0x00,0x00,0x38,0x00,0x00,0x44,0x01,
 0x00,0x80,0x01,0x38,0xc0,0x01,0xe4,0x1f,0x00,0x04,0x10,0x00,0x04,0x10,0x00,
 0x84,0xff,0x01,0xc4,0xaa,0x01,0xa4,0xaa,0x00,0xb4,0x6a,0x00,0x5c,0x35,0x00,
 0xfc,0x1f,0x00,0x00,0x00,0x00,0x00,0x00,0x00,0x00,0x00,0x00,0x00,0x00,0x00};
